Coordinates
version=1
nRows=8
nColumns=63
inDegrees=yes

Units are S.I. units (second, meters, Newtons, ...)
If the header above contains a line with 'inDegrees', this indicates whether rotational values are in degrees (yes) or radians (no).

endheader
time	pelvis_tilt	pelvis_list	pelvis_rotation	pelvis_tx	pelvis_ty	pelvis_tz	hip_flexion_r	hip_adduction_r	hip_rotation_r	knee_angle_r	knee_angle_r_beta	ankle_angle_r	subtalar_angle_r	mtp_angle_r	hip_flexion_l	hip_adduction_l	hip_rotation_l	knee_angle_l	knee_angle_l_beta	ankle_angle_l	subtalar_angle_l	mtp_angle_l	L5_S1_Flex_Ext	L5_S1_Lat_Bending	L5_S1_axial_rotation	L4_L5_Flex_Ext	L4_L5_Lat_Bending	L4_L5_axial_rotation	L3_L4_Flex_Ext	L3_L4_Lat_Bending	L3_L4_axial_rotation	L2_L3_Flex_Ext	L2_L3_Lat_Bending	L2_L3_axial_rotation	L1_L2_Flex_Ext	L1_L2_Lat_Bending	L1_L2_axial_rotation	L1_T12_Flex_Ext	L1_T12_Lat_Bending	L1_T12_axial_rotation	Abs_r3	Abs_r2	Abs_r1	Abs_t1	Abs_t2	neck_flexion	neck_bending	neck_rotation	arm_flex_r	arm_add_r	arm_rot_r	elbow_flex_r	pro_sup_r	wrist_flex_r	wrist_dev_r	arm_flex_l	arm_add_l	arm_rot_l	elbow_flex_l	pro_sup_l	wrist_flex_l	wrist_dev_l
0.000000	0.423864	-6.117574	88.512675	0.152518	0.954035	0.338165	-11.478858	-0.301104	-25.621026	7.821130	0.136504	25.789538	14.556642	0.000000	-11.855843	-1.288997	3.787787	0.308998	0.005393	29.643770	-3.412184	0.000000	0.023984	0.297596	-0.881896	0.044541	0.395802	-0.937015	0.039404	0.723574	-0.937015	0.027412	0.723574	-0.771659	0.022272	0.606857	-0.716541	0.013705	0.460976	-0.661422	0.171317	3.366462	-4.904842	0.000000	0.000000	25.891645	-1.243626	-0.103155	11.528323	-13.047177	131.248151	16.251268	9.317588	-0.358391	-12.006801	6.401431	-3.342762	165.456963	1.883470	59.185931	-10.770411	2.018113
0.016949	0.727443	-6.236220	87.930515	0.153362	0.953742	0.339283	-11.304988	-0.040955	-26.143736	7.446970	0.129974	25.906162	14.866339	0.000000	-11.719312	-1.481072	3.980926	0.329034	0.005743	29.695312	-4.023536	0.000000	0.019237	0.335306	-0.821130	0.035725	0.445957	-0.872451	0.031605	0.815264	-0.872451	0.021986	0.815264	-0.718489	0.017864	0.683757	-0.667168	0.010992	0.519390	-0.615848	0.137409	3.793053	-4.566881	0.000000	0.000000	25.873361	-1.131330	0.124461	11.677687	-13.307469	131.230139	16.617352	9.503839	-0.821885	-12.392435	6.624645	-3.332019	167.319210	1.802097	56.910564	-9.615304	1.932749
0.033898	1.002743	-6.316233	87.372591	0.154179	0.953461	0.340070	-11.178308	0.183303	-26.481697	7.145242	0.124708	26.015801	15.099531	0.000000	-11.640175	-1.648383	3.990093	0.343875	0.006002	29.809665	-4.442248	0.000000	0.013158	0.369555	-0.753340	0.024436	0.491508	-0.800424	0.021617	0.898537	-0.800424	0.015038	0.898537	-0.659173	0.012218	0.753597	-0.612089	0.007518	0.572441	-0.565005	0.093986	4.180482	-4.189852	0.000000	0.000000	25.819291	-1.109626	0.362971	11.628644	-13.558064	130.975917	16.899600	9.527337	-1.125758	-12.392230	6.722291	-3.355283	168.309741	1.756003	54.453529	-8.634818	1.754755
0.050847	1.251315	-6.361436	86.842574	0.154963	0.953194	0.340557	-11.094374	0.374793	-26.656154	6.909820	0.120599	26.119326	15.263524	0.000000	-11.612837	-1.793133	3.840970	0.353977	0.006178	29.975181	-4.690136	0.000000	0.005978	0.400547	-0.680269	0.011103	0.532728	-0.722786	0.009822	0.973890	-0.722786	0.006833	0.973890	-0.595236	0.005552	0.816796	-0.552719	0.003416	0.620447	-0.510202	0.042704	4.531069	-3.783454	0.000000	0.000000	25.734766	-1.166313	0.608972	11.408629	-13.798139	130.523472	17.106884	9.408193	-1.287755	-12.059502	6.708832	-3.407996	168.527192	1.740796	51.855854	-7.813524	1.496091
0.067797	1.474711	-6.375653	86.344134	0.155706	0.952942	0.340777	-11.048743	0.536642	-26.688354	6.734575	0.117541	26.217606	15.365624	0.000000	-11.631704	-1.917519	3.559239	0.359799	0.006280	30.180211	-4.789018	0.000000	-0.002070	0.428487	-0.603662	-0.003844	0.569887	-0.641391	-0.003401	1.041823	-0.641391	-0.002366	1.041823	-0.528204	-0.001922	0.873770	-0.490475	-0.001183	0.663726	-0.452747	-0.014785	4.847129	-3.357387	0.000000	0.000000	25.625119	-1.289192	0.859062	11.045079	-14.026873	129.910789	17.248078	9.166520	-1.325619	-11.447567	6.598733	-3.485605	168.070195	1.752085	49.158570	-7.135991	1.168716
0.084746	1.674480	-6.362706	85.880943	0.156398	0.952705	0.340758	-11.036971	0.671973	-26.599540	6.613382	0.115425	26.311513	15.413136	0.000000	-11.691178	-2.023744	3.170582	0.361799	0.006315	30.413107	-4.760709	0.000000	-0.010756	0.453579	-0.525262	-0.019974	0.603260	-0.558091	-0.017670	1.102833	-0.558091	-0.012293	1.102833	-0.459605	-0.009988	0.924939	-0.426776	-0.006146	0.702594	-0.393947	-0.076826	5.130980	-2.921352	0.000000	0.000000	25.495684	-1.466062	1.109838	10.565430	-14.243444	129.175856	17.332055	8.822430	-1.257096	-10.609741	6.406457	-3.583553	167.037384	1.785479	46.402705	-6.586790	0.784591
0.101695	1.852173	-6.326418	85.456671	0.157033	0.952485	0.340534	-11.054613	0.783912	-26.410959	6.540112	0.114146	26.401916	15.413366	0.000000	-11.785665	-2.114007	2.700681	0.360434	0.006291	30.662222	-4.627026	0.000000	-0.019847	0.476029	-0.446814	-0.036858	0.633119	-0.474740	-0.032607	1.157418	-0.474740	-0.022683	1.157418	-0.390963	-0.018430	0.970719	-0.363037	-0.011341	0.737369	-0.335111	-0.141766	5.384939	-2.485048	0.000000	0.000000	25.351792	-1.684722	1.357900	9.997116	-14.447028	128.356659	17.367690	8.396034	-1.099930	-9.599340	6.146468	-3.697286	165.527392	1.836585	43.629290	-6.150491	0.355674
0.118644	2.009341	-6.270613	85.074990	0.157602	0.952283	0.340135	-11.097227	0.875583	-26.143855	6.508640	0.113597	26.489685	15.373621	0.000000	-11.909570	-2.190509	2.175218	0.356162	0.006216	30.915906	-4.409786	0.000000	-0.029113	0.496042	-0.370062	-0.054065	0.659736	-0.393191	-0.047829	1.206076	-0.393191	-0.033273	1.206076	-0.323804	-0.027034	1.011529	-0.300676	-0.016635	0.768369	-0.277547	-0.207950	5.611325	-2.058175	0.000000	0.000000	25.198777	-1.932971	1.599843	9.367575	-14.636805	127.491183	17.363854	7.907444	-0.871866	-8.469680	5.833230	-3.822248	163.638852	1.901012	40.879354	-5.811663	-0.106073
